<?xml version="1.0" encoding="UTF-8"?>
<svg width="380px" height="353px" viewBox="0 0 380 353" version="1.1" xmlns="http://www.w3.org/2000/svg" xmlns:xlink="http://www.w3.org/1999/xlink">
    <!-- Generator: Sketch 52.5 (67469) - http://www.bohemiancoding.com/sketch -->
    <title>Group 3</title>
    <desc>Created with Sketch.</desc>
    <defs>
        <rect id="path-1" x="0" y="0" width="380" height="353" rx="30"></rect>
        <mask id="mask-2" maskContentUnits="userSpaceOnUse" maskUnits="objectBoundingBox" x="0" y="0" width="380" height="353" fill="white">
            <use xlink:href="#path-1"></use>
        </mask>
    </defs>
    <g id="Page-1" stroke="none" stroke-width="1" fill="none" fill-rule="evenodd">
        <g id="2_Entry-into-Smart-Mirror" transform="translate(-656.000000, -57.000000)">
            <g id="Group-3" transform="translate(656.000000, 57.000000)">
                <use id="Rectangle" stroke="#6889EB" mask="url(#mask-2)" stroke-width="2" fill="#F2FAFF" stroke-dasharray="4" xlink:href="#path-1"></use>
                <g id="Group" transform="translate(130.000000, 179.000000)">
                    <g id="user" transform="translate(-0.000000, 0.000000)">
                        <path d="M79.6953333,76.4002398 C98.8733782,63.6754659 104.106207,37.8148324 91.3814327,18.6367875 C78.6566589,-0.54125731 52.7960253,-5.77138791 33.6179805,6.9537232 C14.4399357,19.6788343 9.20710721,45.5391306 21.9318811,64.7171754 C25.0067622,69.3547895 28.9803665,73.3253587 33.6179805,76.4032749 C13.2430994,85.4906647 0.116682261,105.707721 0.101506823,128.017302 L0.101506823,172.66614 L113.211807,172.66614 L113.211807,128.017302 C113.196969,105.704686 100.070214,85.4906647 79.6953333,76.4002398 Z" id="Path" fill="#90BAE1"></path>
                        <path d="M98.3287485,41.6933372 C98.3287485,64.7084074 79.6713899,83.3654288 56.6566569,83.3654288 C33.641924,83.3654288 14.9845653,64.7080702 14.9845653,41.6933372 C14.9845653,18.6786043 33.6415867,0.021245614 56.6566569,0.021245614 C79.6717271,0.021245614 98.3287485,18.6782671 98.3287485,41.6933372 Z" id="Path" fill="#B0D3F0"></path>
                    </g>
                    <g id="sunglasses" transform="translate(21.000000, 34.000000)" fill="#5D90BA">
                        <path d="M69.1239554,6.77407643 L66.6459745,6.77407643 C66.2096752,5.78986624 65.6633121,4.90694904 65.002242,4.13357962 C62.7333822,1.47949682 59.2003376,0.133796178 54.5013057,0.133796178 L15.9134904,0.133796178 C11.2141146,0.133796178 7.68089809,1.47949682 5.41186624,4.13357962 C4.75079618,4.90677707 4.20443312,5.78986624 3.76813376,6.77407643 L1.28980892,6.77407643 C0.577318471,6.77407643 0,7.3513949 0,8.06388535 C0,8.7763758 0.577318471,9.35369427 1.28980892,9.35369427 L2.93147771,9.35369427 C2.65064331,10.6263057 2.50876433,12.0222229 2.50876433,13.5374904 C2.50876433,20.9289554 8.52219745,26.9423885 15.9134904,26.9423885 C20.5927452,26.9423885 25.1182548,24.8080127 28.6568025,20.9322229 C31.7528599,17.5408854 33.676051,13.1431529 33.676051,9.45515924 C33.676051,9.1361465 33.675879,8.82676433 33.6745032,8.52443312 C34.1716815,8.40611465 34.6841656,8.34609554 35.2066242,8.34609554 C35.7297707,8.34609554 36.2425987,8.4064586 36.7394331,8.5246051 C36.7380573,8.82676433 36.7378854,9.13631847 36.7378854,9.45515924 C36.7378854,13.1433248 38.6612484,17.5412293 41.7571338,20.9322229 C45.2955096,24.8080127 49.821535,26.9423885 54.5011338,26.9423885 C61.8922548,26.9423885 67.905172,20.9289554 67.905172,13.5374904 C67.905172,12.022051 67.763293,10.6263057 67.4824586,9.35369427 L69.1237834,9.35369427 C69.8362739,9.35369427 70.4135924,8.7763758 70.4135924,8.06388535 C70.4137643,7.3513949 69.8364459,6.77407643 69.1239554,6.77407643 Z M26.7516688,19.1930446 C23.7080637,22.5269427 19.8591019,24.3629427 15.9136624,24.3629427 C9.94459873,24.3629427 5.08855414,19.5067261 5.08855414,13.5376624 C5.08855414,6.25419745 8.62950955,2.71375796 15.9136624,2.71375796 C23.6881146,2.71375796 27.9704522,2.71375796 29.7620828,3.58721656 C30.9734713,4.17794904 31.0966051,5.22647771 31.0966051,9.45533121 C31.0964331,12.5261083 29.4317197,16.2574395 26.7516688,19.1930446 Z M35.2067962,5.76630573 C34.6568217,5.76630573 34.114242,5.81531847 33.5821529,5.91042038 C33.466242,4.62422293 33.2067325,3.55901274 32.6256306,2.71341401 L37.7884777,2.71341401 C37.2073758,3.55918471 36.9478662,4.62422293 36.8321274,5.91042038 C36.2998662,5.81549045 35.7571146,5.76630573 35.2067962,5.76630573 Z M54.5013057,24.3627707 C50.5555223,24.3627707 46.7062166,22.5267707 43.6626115,19.1928726 C40.9825605,16.2574395 39.3176752,12.5259363 39.3176752,9.45498726 C39.3176752,5.22613376 39.4408089,4.17743312 40.6523694,3.58687261 C42.444,2.71341401 46.7265096,2.71341401 54.5013057,2.71341401 C61.7849427,2.71341401 65.3257261,6.25402548 65.3257261,13.5373185 C65.3257261,19.5065541 60.4700255,24.3627707 54.5013057,24.3627707 Z" id="Shape" fill-rule="nonzero"></path>
                        <path d="M20.053949,6.45764331 C19.5502357,5.95375796 18.7337006,5.95375796 18.2298153,6.45729936 L9.98312102,14.7008981 C9.47940764,15.2046115 9.47923567,16.0213185 9.98277707,16.5250318 C10.2347197,16.7769745 10.5649108,16.9028599 10.8951019,16.9028599 C11.225121,16.9028599 11.5551401,16.7771465 11.8070828,16.5253758 L20.0537771,8.2816051 C20.5573185,7.77823567 20.5574904,6.96152866 20.053949,6.45764331 Z" id="Path"></path>
                        <path d="M22.3274522,10.563879 L16.1413567,16.7479108 C15.6376433,17.2514522 15.6374713,18.0681592 16.1411847,18.5718726 C16.3929554,18.8238153 16.7231465,18.9497006 17.0533376,18.9497006 C17.3833567,18.9497006 17.7133758,18.8238153 17.9653185,18.5720446 L24.151414,12.3880127 C24.6551274,11.8844713 24.6552994,11.0677643 24.151586,10.564051 C23.6480446,10.0603376 22.8313376,10.0601656 22.3274522,10.563879 Z" id="Path"></path>
                        <path d="M56.3347261,6.45781529 C55.8310127,5.95358599 55.0143057,5.95375796 54.5105924,6.45729936 L46.2632102,14.7010701 C45.7593248,15.2047834 45.7591529,16.0213185 46.2626943,16.5252038 C46.5146369,16.7773185 46.844828,16.9032038 47.1750191,16.9032038 C47.5050382,16.9032038 47.8350573,16.7774904 48.086828,16.5257197 L56.3342102,8.28194904 C56.8380955,7.77823567 56.8382675,6.96152866 56.3347261,6.45781529 Z" id="Path"></path>
                        <path d="M58.6080573,10.563879 L52.4223057,16.7479108 C51.9185924,17.2514522 51.9184204,18.0681592 52.4221338,18.5718726 C52.6739045,18.8238153 53.0040955,18.9497006 53.3342866,18.9497006 C53.6643057,18.9497006 53.9943248,18.8238153 54.2462675,18.5720446 L60.4320191,12.3880127 C60.9357325,11.8844713 60.9359045,11.0677643 60.4321911,10.564051 C59.9288217,10.0603376 59.1121146,10.0601656 58.6080573,10.563879 Z" id="Path"></path>
                    </g>
                </g>
                <text id="Galss-1" font-family="Avenir-Black, Avenir" font-size="16" font-weight="700" fill="#52369B">
                    <tspan x="163.388" y="99">Galss 1</tspan>
                </text>
            </g>
        </g>
    </g>
</svg>